[img]http://img837.imageshack.us/img837/1418/thesocialnetworkmoviepoh.jpg[/img]
[code]	The Social Network CAM XViD - IMAGiNE
********************************************************************************
************************************

Ripper ...........:IMAGiNE									  IMDB Rating.......:8.5/10							 
Video Codec.......:XViD										 Release Date......:18/10/10
Audio Codec.......:mp3										  Theatre Date......:01/10/10
Audio Bitrate.....:128										  Runtime...........:1h 55mn
Subtitles.........:NIL										  Language..........:ENGLISH
Resolution........:720 x 320									IMDb URL..........:http://www.imdb.com/title/tt1285016/


DETAILS:

Video
ID							   : 0
Format						   : MPEG-4 Visual
Format profile				   : Advanced Simple@L5
Format settings, BVOP			: Yes
Format settings, QPel			: No
Format settings, GMC			 : No warppoints
Format settings, Matrix		  : Default (H.263)
Muxing mode					  : Packed bitstream
Codec ID						 : XVID
Codec ID/Hint					: XviD
Duration						 : 1h 55mn
Bit rate						 : 1 474 Kbps
Width							: 720 pixels
Height						   : 320 pixels
Display aspect ratio			 : 2.25:1
Frame rate					   : 23.976 fps
Color space					  : YUV
Chroma subsampling			   : 4:2:0
Bit depth						: 8 bits
Scan type						: Progressive
Bits/(Pixel*Frame)			   : 0.267
Stream size					  : 1.19 GiB (91%)
Writing library				  : XviD 1.2.1 (UTC 2008-12-04)

Audio
ID							   : 1
Format						   : MPEG Audio
Format version				   : Version 1
Format profile				   : Layer 3
Codec ID						 : 55
Codec ID/Hint					: MP3
Duration						 : 1h 55mn
Bit rate mode					: Constant
Bit rate						 : 128 Kbps
Channel(s)					   : 2 channels
Sampling rate					: 44.1 KHz
Stream size					  : 105 MiB (8%)
Alignment						: Split accross interleaves
Interleave, duration			 : 42 ms (1.00 video frame)
Interleave, preload duration	 : 500 ms




SOURCES:

VIDEO:The Social Network .MOV files .............Thanks Secret Sauceifier 
AUDIO:The Social Network .MOV files .............Thanks Secret Sauceifier 

NOTES:

IMAGiNE bringing you another release..........The Social Network

Well here we go with a first release of this one... 
Thanks to Secret Sauceifier on this one... Nice work bro...  First we did a small 
script containing crop,resize,white balance,rgb eq,sharpness,chroma,brightness,contrast......
The source video was very dark so we had to lighten it up a bit to make it more visible, but 
turned out okay considering. It has some dark scene's in it along with light scene's so it 
was a matter of keeping balance there. The audio is pretty good cam audio, but we did filter a few 
things to make the vocals stand out more and remove some small amounts of noise.

Enjoy folks...[/code]
Screens:
[img]http://img88.imageshack.us/img88/5720/20072786.png[/img]
[img]http://img405.imageshack.us/img405/8940/11359230.png[/img]
[img]http://img87.imageshack.us/img87/5994/59084349.png[/img]
[img]http://img440.imageshack.us/img440/2198/75503493.png[/img]
[img]http://img183.imageshack.us/img183/1394/78992923.png[/img]